<svg width="38" height="38" viewBox="0 0 38 38" fill="none" xmlns="http://www.w3.org/2000/svg">
<rect width="38" height="38" rx="6" fill="white"/>
<path d="M14.7799 32H23.6507M14.7799 18.6938H9.47815C9.18578 18.6937 8.9 18.607 8.65692 18.4445C8.41385 18.2821 8.2244 18.0512 8.11252 17.7811C8.00065 17.511 7.97137 17.2137 8.02839 16.927C8.08541 16.6402 8.22617 16.3768 8.43288 16.1701L18.1701 6.43287C18.4473 6.15571 18.8233 6 19.2153 6C19.6074 6 19.9834 6.15571 20.2606 6.43287L29.9978 16.1701C30.2045 16.3768 30.3453 16.6402 30.4023 16.927C30.4593 17.2137 30.43 17.511 30.3181 17.7811C30.2063 18.0512 30.0168 18.2821 29.7737 18.4445C29.5307 18.607 29.2449 18.6937 28.9525 18.6938H23.6507V27.5646H14.7799V18.6938Z" stroke="#5AA960" stroke-width="2" stroke-linecap="round" stroke-linejoin="round"/>
</svg>
